<svg width="25" height="25" viewBox="0 0 46 46" fill="none" xmlns="http://www.w3.org/2000/svg">
<path d="M2.66481 43.3275L2.67263 43.3353C2.8799 43.5441 3.1264 43.7099 3.39795 43.8231C3.6695 43.9363 3.96075 43.9947 4.25496 43.995C4.50251 43.9948 4.74836 43.9539 4.98269 43.8741L17.741 39.5462L42.2235 15.0637C43.7201 13.5669 44.5609 11.5369 44.5608 9.42017C44.5607 7.30346 43.7198 5.27348 42.223 3.77681C40.7262 2.28013 38.6961 1.43936 36.5794 1.43945C34.4627 1.43955 32.4327 2.28049 30.936 3.7773L6.45361 28.2597L2.12602 41.0177C1.9897 41.4144 1.96794 41.8416 2.06324 42.2501C2.15853 42.6586 2.36703 43.032 2.66481 43.3275ZM32.9691 5.8102C33.9279 4.85869 35.2247 4.32589 36.5756 4.32849C37.9264 4.33108 39.2211 4.86885 40.1763 5.82404C41.1314 6.77922 41.6692 8.07398 41.6717 9.4248C41.6743 10.7756 41.1415 12.0724 40.1899 13.0312L36.9705 16.2507L29.7495 9.02966L32.9691 5.8102ZM8.96115 29.8181L27.7166 11.0626L34.9376 18.2836L16.1821 37.039L5.25402 40.7461L8.96115 29.8181Z" fill="#BEBEBE"/>
</svg>
