<svg width="50" height="50" viewBox="0 0 50 50" fill="none" xmlns="http://www.w3.org/2000/svg">
<circle cx="25" cy="25" r="19" stroke="white" stroke-width="4"/>
<path d="M24.7383 18.6289C26.4961 18.6289 27.8438 19.0117 28.7812 19.7773C29.7188 20.543 30.1875 21.707 30.1875 23.2695V32H27.6914L27 30.2188H26.9062C26.5312 30.6875 26.1484 31.0703 25.7578 31.3672C25.3672 31.6641 24.918 31.8828 24.4102 32.0234C23.9023 32.1641 23.2852 32.2344 22.5586 32.2344C21.7852 32.2344 21.0898 32.0859 20.4727 31.7891C19.8633 31.4922 19.3828 31.0391 19.0312 30.4297C18.6797 29.8125 18.5039 29.0312 18.5039 28.0859C18.5039 26.6953 18.9922 25.6719 19.9688 25.0156C20.9453 24.3516 22.4102 23.9844 24.3633 23.9141L26.6367 23.8438V23.2695C26.6367 22.582 26.457 22.0781 26.0977 21.7578C25.7383 21.4375 25.2383 21.2773 24.5977 21.2773C23.9648 21.2773 23.3438 21.3672 22.7344 21.5469C22.125 21.7266 21.5156 21.9531 20.9062 22.2266L19.7227 19.8125C20.418 19.4453 21.1953 19.1562 22.0547 18.9453C22.9219 18.7344 23.8164 18.6289 24.7383 18.6289ZM26.6367 25.9297L25.2539 25.9766C24.0977 26.0078 23.293 26.2148 22.8398 26.5977C22.3945 26.9805 22.1719 27.4844 22.1719 28.1094C22.1719 28.6562 22.332 29.0469 22.6523 29.2812C22.9727 29.5078 23.3906 29.6211 23.9062 29.6211C24.6719 29.6211 25.3164 29.3945 25.8398 28.9414C26.3711 28.4883 26.6367 27.8438 26.6367 27.0078V25.9297Z" fill="white"/>
</svg>
