<svg width="48" height="45" viewBox="0 0 48 45" fill="none" xmlns="http://www.w3.org/2000/svg">
<mask id="path-1-inside-1_31_121" fill="white">
<rect width="23.2323" height="22.303" rx="1"/>
</mask>
<rect width="23.2323" height="22.303" rx="1" stroke="#BEBEBE" stroke-width="6" mask="url(#path-1-inside-1_31_121)"/>
<path d="M21.8382 13.5449V20.4439C21.8382 20.7005 21.6302 20.9086 21.3736 20.9086H16.7271H14.4746C13.9223 20.9086 13.4746 21.3563 13.4746 21.9086V31.0601C13.4746 31.6124 13.9223 32.0601 14.4746 32.0601H32.9191C33.4713 32.0601 33.9191 31.6124 33.9191 31.0601V13.5449C33.9191 12.9926 33.4713 12.5449 32.9191 12.5449H22.8382C22.286 12.5449 21.8382 12.9926 21.8382 13.5449Z" stroke="#BEBEBE" stroke-width="3"/>
<path d="M45.0001 23.6973H34.9193C34.367 23.6973 33.9193 24.145 33.9193 24.6973V31.0609C33.9193 31.6132 33.4716 32.0609 32.9193 32.0609H26.5557C26.0034 32.0609 25.5557 32.5086 25.5557 33.0609V42.2124C25.5557 42.7647 26.0034 43.2124 26.5557 43.2124H45.0001C45.5524 43.2124 46.0001 42.7647 46.0001 42.2124V24.6973C46.0001 24.145 45.5524 23.6973 45.0001 23.6973Z" stroke="#BEBEBE" stroke-width="3"/>
</svg>
