<svg width="41" height="47" viewBox="0 0 41 47" fill="none" xmlns="http://www.w3.org/2000/svg">
<path d="M39.9867 12.2945C39.9909 11.5949 39.8166 10.9058 39.4804 10.292C39.1442 9.67824 38.657 9.16002 38.0649 8.78614C37.4727 8.41227 36.795 8.19504 36.0955 8.15491C35.3961 8.11478 34.6979 8.25307 34.0667 8.55677C34.025 7.85225 33.8074 7.16937 33.4337 6.57038C33.0599 5.97139 32.542 5.47534 31.927 5.12747C31.3121 4.77959 30.6197 4.59096 29.913 4.57877C29.2064 4.56657 28.5079 4.7312 27.8813 5.05765C27.8106 4.04452 27.388 3.0878 26.6864 2.35255C25.9848 1.6173 25.0482 1.14964 24.0382 1.03025C23.0282 0.910855 22.0082 1.14723 21.1541 1.69858C20.2999 2.24993 19.6653 3.08168 19.3597 4.05032C18.694 3.65167 17.9325 3.44095 17.1563 3.44063C16.5852 3.44236 16.02 3.55663 15.4932 3.77687C14.9664 3.99712 14.4883 4.31902 14.0863 4.72412C13.6843 5.12922 13.3664 5.60955 13.1506 6.13759C12.9349 6.66563 12.8256 7.23099 12.8291 7.80127V24.5811C11.1301 22.4605 9.47095 20.3663 9.21875 20.0084C8.83488 19.3998 8.30185 18.899 7.67008 18.5534C7.03831 18.2078 6.32869 18.0289 5.60836 18.0335C4.99737 18.0151 4.38907 18.1219 3.82102 18.3473C3.25297 18.5728 2.73723 18.9121 2.30561 19.3443C1.874 19.7765 1.53569 20.2925 1.31155 20.8604C1.08742 21.4283 0.982219 22.036 1.00245 22.646C1.12191 25.0318 5.74109 33.4615 8.84709 38.0475C13.5459 44.9927 18.0324 46 18.2315 46H32.1952C32.4594 45.9971 32.7156 45.9088 32.9252 45.7482C35.3088 43.5548 37.0325 40.7411 37.9028 37.6233C39.2301 33.5278 39.9336 27.6429 40 19.6506L39.9867 12.2945ZM35.633 36.8811C34.8877 39.4037 33.5498 41.7122 31.7306 43.6142H18.5766C17.9527 43.4287 14.5016 42.1563 10.785 36.6558C7.06844 31.1553 3.45805 23.8257 3.39168 22.5267C3.38099 22.2493 3.42861 21.9727 3.53149 21.7147C3.63436 21.4567 3.79021 21.2232 3.98899 21.029C4.18479 20.8278 4.42053 20.6696 4.6811 20.5646C4.94167 20.4596 5.22133 20.4101 5.50217 20.4193C5.85282 20.3989 6.20225 20.4761 6.51158 20.6423C6.82092 20.8084 7.07802 21.057 7.25427 21.3604C7.6392 21.9303 10.3868 25.3366 11.9929 27.3645L15.2184 25.1908V7.80127C15.1961 7.53101 15.2301 7.25906 15.3184 7.0026C15.4067 6.74614 15.5472 6.51074 15.7312 6.31127C15.9152 6.11179 16.1386 5.95257 16.3873 5.84367C16.636 5.73477 16.9046 5.67854 17.1762 5.67854C17.4478 5.67854 17.7164 5.73477 17.9651 5.84367C18.2138 5.95257 18.4372 6.11179 18.6212 6.31127C18.8052 6.51074 18.9458 6.74614 19.034 7.0026C19.1223 7.25906 19.1564 7.53101 19.1341 7.80127V22.5665H21.5233V5.33598C21.5798 4.84825 21.8138 4.39827 22.181 4.07165C22.5481 3.74503 23.0226 3.56455 23.5143 3.56455C24.006 3.56455 24.4806 3.74503 24.8477 4.07165C25.2148 4.39827 25.4488 4.84825 25.5053 5.33598V22.7388H27.8946V8.88812C27.8726 8.62679 27.9052 8.36375 27.9903 8.11565C28.0754 7.86755 28.2111 7.63978 28.3889 7.44675C28.5667 7.25372 28.7827 7.09963 29.0232 6.99423C29.2636 6.88883 29.5234 6.83441 29.786 6.83441C30.0487 6.83441 30.3084 6.88883 30.5489 6.99423C30.7894 7.09963 31.0054 7.25372 31.1832 7.44675C31.3609 7.63978 31.4967 7.86755 31.5818 8.11565C31.6669 8.36375 31.6995 8.62679 31.6775 8.88812V24.051H34.0667V12.2547C34.105 11.8153 34.3069 11.4061 34.6325 11.108C34.9581 10.81 35.3838 10.6446 35.8255 10.6446C36.2672 10.6446 36.6929 10.81 37.0185 11.108C37.3441 11.4061 37.546 11.8153 37.5842 12.2547V19.6108C37.5444 27.4441 36.9073 33.0241 35.633 36.8811Z" fill="white" stroke="white"/>
</svg>
