<svg width="42" height="47" viewBox="0 0 42 47" fill="none" xmlns="http://www.w3.org/2000/svg">
<path d="M22.844 47V42.401C24.1385 42.214 25.4048 41.8775 26.643 41.3914C27.8811 40.9053 29.0515 40.2697 30.1541 39.4845L33.3523 42.7375C31.7532 43.934 30.078 44.8964 28.3266 45.6248C26.5752 46.3531 24.7477 46.8116 22.844 47ZM18.2752 47C13.0211 46.327 8.66169 44.0925 5.19702 40.2966C1.73234 36.5007 0 32.0423 0 26.9212C0 24.1169 0.542926 21.4899 1.62878 19.04C2.71463 16.5902 4.18046 14.4589 6.02625 12.6463C7.87205 10.8351 10.0415 9.39701 12.5345 8.33212C15.0276 7.26724 17.7018 6.73405 20.5573 6.73255H20.9L17.3615 3.25298L20.5596 0L29.6972 8.97375L20.5596 17.9475L17.3615 14.8067L21.0165 11.2172H20.5596C16.105 11.2172 12.3259 12.7412 9.22213 15.7893C6.11839 18.8374 4.56728 22.548 4.56881 26.9212C4.56881 30.8099 5.8633 34.2221 8.45229 37.158C11.0413 40.094 14.3156 41.8416 18.2752 42.401V47ZM36.6647 39.4845L33.3523 36.3437C34.1518 35.2593 34.7991 34.1092 35.294 32.8933C35.789 31.6773 36.1316 30.4345 36.322 29.1647H41.005C40.8147 31.0342 40.3486 32.829 39.607 34.5489C38.8653 36.2689 37.8845 37.9141 36.6647 39.4845ZM41.005 24.6778H36.322C36.1316 23.4065 35.789 22.1629 35.294 20.947C34.7991 19.731 34.1518 18.5816 33.3523 17.4988L36.6647 14.358C37.883 15.8162 38.8539 17.424 39.5773 19.1814C40.3007 20.9387 40.7766 22.7709 41.005 24.6778Z" fill="white"/>
</svg>
