<svg width="46" height="46" viewBox="0 0 46 46" fill="none" xmlns="http://www.w3.org/2000/svg">
<path d="M33.0468 28.3674C33.2878 26.5556 33.3965 24.7433 33.3965 23V22.8724H33.3961V22.7843V22.7629V22.7098V22.6884H33.3958L33.3943 22.6317L33.3959 22.6316L33.394 22.5643V22.5483V22.5291V22.5059V22.4845V22.4613V22.4526L33.3937 22.444L33.3922 22.401L33.3936 22.4009L33.3915 22.3494C33.3915 22.3495 33.3915 22.3496 33.3915 22.3492L33.3915 22.349L33.3915 22.348L33.3915 22.3478L32.8915 22.3579C32.8906 22.3305 32.8878 22.2494 32.884 22.1377C33.1705 22.1384 33.391 22.3391 33.3913 22.3442L33.391 22.3335L33.3893 22.2843L33.3833 22.108L33.365 21.5723L33.3467 21.0365L33.3407 20.8602L33.3395 20.8237L34.9269 20.7191L34.9439 21.0487C34.944 21.0496 34.944 21.0505 34.944 21.0514C34.9475 21.1364 34.9505 21.2056 34.953 21.2653C34.9611 21.4588 34.9651 21.5522 34.9714 21.754C34.9715 21.7551 34.9715 21.7562 34.9715 21.7573L34.9799 22.1987C34.98 22.1992 34.98 22.1996 34.98 22.2001C34.9842 22.4673 34.9863 22.7344 34.9884 23.0042C34.9884 24.5932 34.9023 26.1867 34.7218 27.7729C34.18 27.9902 33.6193 28.1879 33.0468 28.3674ZM33.3256 20.8246C33.164 20.9892 32.9966 21.0435 32.8467 21.0434C32.843 20.9354 32.8403 20.8557 32.8392 20.8249L32.8417 20.8248L32.8438 20.8564L33.3256 20.8246ZM34.9398 20.4961C34.9543 20.4654 34.9876 20.4132 35.0346 20.3561L35.4049 20.3242C35.4072 20.3774 35.4198 20.5829 35.4219 20.6125L35.0247 20.6327C35.0042 20.6083 34.9856 20.5842 34.9766 20.5702C34.9593 20.5416 34.9474 20.5151 34.9398 20.4961ZM5.23119 27.7812L6.08091 26.8615L8.09368 32.1949L2.62059 30.6061L3.47198 29.6861L3.80903 29.3219L3.44736 28.9821C1.71662 27.3561 0.500571 25.3325 0.5 23.0018C0.512322 21.1901 1.18832 19.6463 2.33138 18.2053C3.84463 16.3634 5.94745 14.9332 8.34946 13.8516C8.21155 14.4978 8.08973 15.1478 7.98356 15.801C6.80979 16.4129 5.72199 17.1296 4.76537 17.9636L4.76536 17.9635L4.76191 17.9666C3.52316 19.0668 2.42107 20.4802 2.15286 22.2298L2.15277 22.2305C1.97258 23.416 2.2199 24.5346 2.75594 25.5555L2.75628 25.5562C3.20825 26.414 3.84553 27.175 4.52268 27.8073L4.89006 28.1504L5.23119 27.7812ZM23.0004 12.599C21.3276 12.599 19.4993 12.7085 17.6336 12.9583C17.8161 12.389 18.0176 11.8308 18.2389 11.2867C19.905 11.0944 21.5207 11.0097 23 11.0097C26.7179 11.0097 30.475 11.4774 34.0308 12.5269C36.4659 13.2459 39.3505 14.4647 41.6195 16.2212C43.8873 17.9767 45.4823 20.2201 45.5 22.9996C45.4873 24.8088 44.8132 26.3521 43.6707 27.7923C41.4687 30.4744 38.0177 32.2798 34.2277 33.4129C30.4433 34.5444 26.3731 34.9898 23.0002 34.9898C21.2901 34.9898 19.5106 34.895 17.8197 34.6752L18.0356 33.0995C19.6642 33.3097 21.3755 33.3979 23.0023 33.3979C25.9227 33.3979 29.3183 33.0637 32.5588 32.2315C35.7945 31.4005 38.91 30.0641 41.2371 28.0362L41.2406 28.0331C42.6565 26.7754 43.892 25.1083 43.911 23.0041H43.9111L43.911 22.9951C43.8956 21.2768 43.0617 19.8222 41.9525 18.6504C40.8442 17.4795 39.4292 16.5556 38.1639 15.8839L38.1615 15.8827C33.6238 13.5052 28.0185 12.599 23.0004 12.599ZM30.6792 4.74185L31.6858 3.99522L32.6718 9.60536L27.589 7.03032L28.596 6.28337L28.9967 5.98618L28.7004 5.58484C27.4348 3.87041 25.4225 2.09184 22.9998 2.09182L22.9953 2.09186C21.2769 2.10728 19.8223 2.94175 18.6505 4.05145C17.4796 5.1603 16.5557 6.57577 15.8841 7.84098L15.8829 7.84318C13.5052 12.3763 12.5991 17.9817 12.5991 22.9996C12.5991 25.92 12.9333 29.3155 13.7658 32.556C14.5971 35.7917 15.9341 38.9071 17.9632 41.2342L17.9662 41.2376C19.2238 42.6534 20.8888 43.8889 22.9953 43.908V43.908L23.0043 43.908C24.7226 43.8925 26.1772 43.0587 27.3491 41.9495C28.52 40.8412 29.4439 39.4262 30.1156 38.1609L30.1156 38.1609L30.1183 38.1557L30.1946 38.0077C30.8367 37.9038 31.4814 37.7858 32.1246 37.6516C31.2743 39.5155 30.1669 41.3426 28.7925 42.7643C27.2048 44.4067 25.2858 45.4851 23.0002 45.5C21.1889 45.4873 19.6457 44.8132 18.2054 43.6708C15.5232 41.4678 13.7183 38.0168 12.5856 34.227C11.4547 30.4428 11.0098 26.373 11.0098 22.9996C11.0098 19.2839 11.4775 15.5247 12.5271 11.9691C13.2461 9.53398 14.4649 6.64942 16.2214 4.38042C17.9773 2.11224 20.2212 0.517097 23.0014 0.5C25.8697 0.500629 28.2374 2.32879 29.9822 4.64141L30.2809 5.03732L30.6792 4.74185Z" fill="white" stroke="white"/>
</svg>
